<svg width="299" height="100" viewBox="0 0 299 100" fill="none" xmlns="http://www.w3.org/2000/svg">
<rect width="50.75" height="1" transform="translate(48 41)" fill="#C0C0C0"/>
<rect width="50.75" height="1" transform="translate(98.75 41)" fill="#C0C0C0"/>
<rect width="50.75" height="1" transform="translate(149.5 41)" fill="#C0C0C0"/>
<rect width="50.75" height="1" transform="translate(200.25 41)" fill="#C0C0C0"/>
<rect x="38.5" y="31.5" width="19" height="19" rx="9.5" fill="#F2F2F2"/>
<rect x="38.5" y="31.5" width="19" height="19" rx="9.5" stroke="#4AA6B0"/>
<circle cx="48" cy="41" r="2" fill="#4AA6B0"/>
<path d="M21.1998 63.46C21.2598 63.46 21.3115 63.4833 21.3548 63.53L21.7748 63.99C21.4815 64.3367 21.1231 64.605 20.6998 64.795C20.2798 64.985 19.7731 65.08 19.1798 65.08C18.6598 65.08 18.1881 64.99 17.7648 64.81C17.3448 64.63 16.9848 64.3783 16.6848 64.055C16.3881 63.7317 16.1581 63.345 15.9948 62.895C15.8315 62.445 15.7498 61.95 15.7498 61.41C15.7498 60.87 15.8348 60.375 16.0048 59.925C16.1781 59.475 16.4198 59.0883 16.7298 58.765C17.0398 58.4417 17.4098 58.19 17.8398 58.01C18.2731 57.83 18.7515 57.74 19.2748 57.74C19.7848 57.74 20.2381 57.8233 20.6348 57.99C21.0315 58.1567 21.3765 58.3783 21.6698 58.655L21.3198 59.15C21.2965 59.1867 21.2665 59.2167 21.2298 59.24C21.1965 59.2633 21.1515 59.275 21.0948 59.275C21.0315 59.275 20.9565 59.2433 20.8698 59.18C20.7865 59.1167 20.6748 59.0467 20.5348 58.97C20.3981 58.89 20.2281 58.8183 20.0248 58.755C19.8215 58.6917 19.5681 58.66 19.2648 58.66C18.9081 58.66 18.5815 58.7233 18.2848 58.85C17.9881 58.9733 17.7315 59.1533 17.5148 59.39C17.3015 59.6233 17.1348 59.9117 17.0148 60.255C16.8981 60.595 16.8398 60.98 16.8398 61.41C16.8398 61.8467 16.9015 62.235 17.0248 62.575C17.1481 62.915 17.3181 63.2033 17.5348 63.44C17.7515 63.6767 18.0065 63.8567 18.2998 63.98C18.5931 64.1033 18.9098 64.165 19.2498 64.165C19.4565 64.165 19.6415 64.1533 19.8048 64.13C19.9715 64.1033 20.1231 64.065 20.2598 64.015C20.3998 63.965 20.5315 63.9017 20.6548 63.825C20.7781 63.745 20.8998 63.65 21.0198 63.54C21.0465 63.5167 21.0748 63.4983 21.1048 63.485C21.1348 63.4683 21.1665 63.46 21.1998 63.46ZM25.2123 59.84C25.5856 59.84 25.9223 59.9017 26.2223 60.025C26.5256 60.145 26.7823 60.32 26.9923 60.55C27.2056 60.7767 27.369 61.0517 27.4823 61.375C27.5956 61.695 27.6523 62.055 27.6523 62.455C27.6523 62.855 27.5956 63.2167 27.4823 63.54C27.369 63.8633 27.2056 64.1383 26.9923 64.365C26.7823 64.5917 26.5256 64.7667 26.2223 64.89C25.9223 65.01 25.5856 65.07 25.2123 65.07C24.8356 65.07 24.4956 65.01 24.1923 64.89C23.8923 64.7667 23.6356 64.5917 23.4223 64.365C23.209 64.1383 23.044 63.8633 22.9273 63.54C22.814 63.2167 22.7573 62.855 22.7573 62.455C22.7573 62.055 22.814 61.695 22.9273 61.375C23.044 61.0517 23.209 60.7767 23.4223 60.55C23.6356 60.32 23.8923 60.145 24.1923 60.025C24.4956 59.9017 24.8356 59.84 25.2123 59.84ZM25.2123 64.31C25.6923 64.31 26.0506 64.1483 26.2873 63.825C26.524 63.5017 26.6423 63.0467 26.6423 62.46C26.6423 61.8733 26.524 61.4183 26.2873 61.095C26.0506 60.7683 25.6923 60.605 25.2123 60.605C24.7256 60.605 24.3623 60.7683 24.1223 61.095C23.8856 61.4183 23.7673 61.8733 23.7673 62.46C23.7673 63.0467 23.8856 63.5017 24.1223 63.825C24.3623 64.1483 24.7256 64.31 25.2123 64.31ZM30.1557 60.625C30.2657 60.5083 30.3807 60.4017 30.5007 60.305C30.6207 60.2083 30.7473 60.1267 30.8807 60.06C31.0173 59.99 31.1623 59.9367 31.3157 59.9C31.4723 59.86 31.639 59.84 31.8157 59.84C32.0957 59.84 32.3407 59.8867 32.5507 59.98C32.764 60.0733 32.9423 60.205 33.0857 60.375C33.229 60.5417 33.3373 60.7433 33.4107 60.98C33.484 61.2167 33.5207 61.4783 33.5207 61.765V65H32.5407V61.765C32.5407 61.4017 32.4573 61.12 32.2907 60.92C32.124 60.7167 31.869 60.615 31.5257 60.615C31.2757 60.615 31.0407 60.675 30.8207 60.795C30.604 60.9117 30.4023 61.0717 30.2157 61.275V65H29.2407V59.92H29.8257C29.9623 59.92 30.0473 59.985 30.0807 60.115L30.1557 60.625ZM35.5982 65V60.72L35.0682 60.655C34.9916 60.6383 34.9282 60.6117 34.8782 60.575C34.8316 60.535 34.8082 60.4783 34.8082 60.405V60H35.5982V59.755C35.5982 59.445 35.6466 59.16 35.7432 58.9C35.8432 58.6367 35.9916 58.41 36.1882 58.22C36.3882 58.03 36.6349 57.8833 36.9282 57.78C37.2249 57.6733 37.5716 57.62 37.9682 57.62C38.0949 57.62 38.2282 57.6283 38.3682 57.645C38.5082 57.6617 38.6266 57.6867 38.7232 57.72L38.6882 58.23C38.6816 58.2967 38.6399 58.3317 38.5632 58.335C38.4866 58.3383 38.3799 58.34 38.2432 58.34C37.9399 58.34 37.6816 58.37 37.4682 58.43C37.2549 58.49 37.0799 58.58 36.9432 58.7C36.8066 58.82 36.7066 58.9717 36.6432 59.155C36.5799 59.335 36.5482 59.545 36.5482 59.785V60H39.6382V65H38.6582V60.71H36.5782V65H35.5982ZM43.3343 62.465C43.5076 62.465 43.6593 62.4417 43.7893 62.395C43.9226 62.3483 44.0326 62.2833 44.1193 62.2C44.2093 62.1133 44.2759 62.01 44.3193 61.89C44.3659 61.77 44.3893 61.6383 44.3893 61.495C44.3893 61.2017 44.2993 60.9683 44.1193 60.795C43.9426 60.6183 43.6809 60.53 43.3343 60.53C42.9909 60.53 42.7293 60.6183 42.5493 60.795C42.3726 60.9683 42.2843 61.2017 42.2843 61.495C42.2843 61.6383 42.3059 61.77 42.3493 61.89C42.3959 62.0067 42.4626 62.1083 42.5493 62.195C42.6393 62.2783 42.7493 62.345 42.8793 62.395C43.0126 62.4417 43.1643 62.465 43.3343 62.465ZM44.8893 65.265C44.8893 65.145 44.8559 65.05 44.7893 64.98C44.7226 64.9067 44.6309 64.85 44.5143 64.81C44.4009 64.7667 44.2676 64.7367 44.1143 64.72C43.9609 64.7 43.7993 64.685 43.6293 64.675C43.4626 64.665 43.2909 64.6567 43.1143 64.65C42.9376 64.64 42.7676 64.6233 42.6043 64.6C42.4309 64.6867 42.2876 64.7917 42.1743 64.915C42.0643 65.0383 42.0093 65.1833 42.0093 65.35C42.0093 65.4567 42.0359 65.5567 42.0893 65.65C42.1459 65.7433 42.2309 65.8233 42.3443 65.89C42.4609 65.96 42.6059 66.0133 42.7793 66.05C42.9559 66.09 43.1659 66.11 43.4093 66.11C43.6493 66.11 43.8609 66.0883 44.0443 66.045C44.2276 66.005 44.3809 65.9467 44.5043 65.87C44.6309 65.7967 44.7259 65.7083 44.7893 65.605C44.8559 65.5017 44.8893 65.3883 44.8893 65.265ZM45.8793 60.11V60.475C45.8793 60.595 45.8043 60.67 45.6543 60.7L45.1093 60.78C45.1559 60.8833 45.1926 60.9933 45.2193 61.11C45.2459 61.2233 45.2593 61.3433 45.2593 61.47C45.2593 61.72 45.2109 61.9467 45.1143 62.15C45.0176 62.35 44.8843 62.5217 44.7143 62.665C44.5443 62.8083 44.3409 62.9183 44.1043 62.995C43.8709 63.0717 43.6143 63.11 43.3343 63.11C43.1043 63.11 42.8893 63.085 42.6893 63.035C42.5893 63.095 42.5126 63.1617 42.4593 63.235C42.4093 63.305 42.3843 63.375 42.3843 63.445C42.3843 63.5617 42.4326 63.6483 42.5293 63.705C42.6293 63.7617 42.7576 63.8033 42.9143 63.83C43.0743 63.8533 43.2559 63.8683 43.4593 63.875C43.6659 63.8817 43.8743 63.8933 44.0843 63.91C44.2976 63.9233 44.5059 63.95 44.7093 63.99C44.9159 64.0267 45.0976 64.0883 45.2543 64.175C45.4143 64.2583 45.5426 64.375 45.6393 64.525C45.7393 64.6717 45.7893 64.8633 45.7893 65.1C45.7893 65.32 45.7343 65.5333 45.6243 65.74C45.5176 65.9467 45.3609 66.13 45.1543 66.29C44.9476 66.45 44.6959 66.5783 44.3993 66.675C44.1026 66.7717 43.7659 66.82 43.3893 66.82C43.0126 66.82 42.6843 66.7833 42.4043 66.71C42.1276 66.6367 41.8959 66.5383 41.7093 66.415C41.5259 66.2917 41.3876 66.1483 41.2943 65.985C41.2043 65.8217 41.1593 65.6517 41.1593 65.475C41.1593 65.2283 41.2359 65.02 41.3893 64.85C41.5426 64.6767 41.7543 64.5417 42.0243 64.445C41.8776 64.3783 41.7609 64.2883 41.6743 64.175C41.5876 64.0583 41.5443 63.905 41.5443 63.715C41.5443 63.6417 41.5576 63.5667 41.5843 63.49C41.6109 63.41 41.6509 63.3317 41.7043 63.255C41.7609 63.175 41.8293 63.1 41.9093 63.03C41.9926 62.96 42.0876 62.8967 42.1943 62.84C41.9443 62.7 41.7476 62.515 41.6043 62.285C41.4609 62.0517 41.3893 61.78 41.3893 61.47C41.3893 61.22 41.4376 60.995 41.5343 60.795C41.6309 60.595 41.7643 60.4233 41.9343 60.28C42.1076 60.1367 42.3126 60.0267 42.5493 59.95C42.7893 59.8733 43.0509 59.835 43.3343 59.835C43.7743 59.835 44.1526 59.9267 44.4693 60.11H45.8793ZM51.4989 59.92V65H50.9139C50.7805 65 50.6939 64.935 50.6539 64.805L50.5839 64.295C50.4739 64.4117 50.3589 64.5183 50.2389 64.615C50.1189 64.7117 49.9905 64.795 49.8539 64.865C49.7172 64.9317 49.5722 64.9833 49.4189 65.02C49.2655 65.06 49.1005 65.08 48.9239 65.08C48.6439 65.08 48.3972 65.0333 48.1839 64.94C47.9739 64.8467 47.7972 64.7167 47.6539 64.55C47.5105 64.38 47.4022 64.1767 47.3289 63.94C47.2555 63.7033 47.2189 63.4417 47.2189 63.155V59.92H48.1989V63.155C48.1989 63.5183 48.2822 63.8017 48.4489 64.005C48.6155 64.205 48.8705 64.305 49.2139 64.305C49.4639 64.305 49.6972 64.2467 49.9139 64.13C50.1305 64.01 50.3339 63.8467 50.5239 63.64V59.92H51.4989ZM54.2798 60.895C54.4431 60.5617 54.6398 60.3 54.8698 60.11C55.0998 59.92 55.3765 59.825 55.6998 59.825C55.8098 59.825 55.9131 59.8383 56.0098 59.865C56.1098 59.8883 56.1965 59.925 56.2698 59.975L56.2048 60.71C56.1815 60.8 56.1265 60.845 56.0398 60.845C55.9931 60.845 55.9231 60.8367 55.8298 60.82C55.7365 60.8 55.6365 60.79 55.5298 60.79C55.3731 60.79 55.2348 60.8133 55.1148 60.86C54.9948 60.9033 54.8865 60.97 54.7898 61.06C54.6965 61.1467 54.6131 61.255 54.5398 61.385C54.4665 61.5117 54.3981 61.6567 54.3348 61.82V65H53.3598V59.92H53.9198C54.0265 59.92 54.0981 59.94 54.1348 59.98C54.1748 60.0167 54.2031 60.0833 54.2198 60.18L54.2798 60.895ZM60.1738 62.745C59.7771 62.7583 59.4405 62.79 59.1638 62.84C58.8871 62.8867 58.6621 62.95 58.4888 63.03C58.3155 63.11 58.1905 63.205 58.1138 63.315C58.0371 63.4217 57.9988 63.5417 57.9988 63.675C57.9988 63.8017 58.0188 63.9117 58.0588 64.005C58.1021 64.095 58.1588 64.17 58.2288 64.23C58.3021 64.2867 58.3871 64.3283 58.4838 64.355C58.5805 64.3817 58.6855 64.395 58.7988 64.395C58.9488 64.395 59.0855 64.38 59.2088 64.35C59.3355 64.32 59.4538 64.2783 59.5638 64.225C59.6738 64.1683 59.7788 64.1 59.8788 64.02C59.9788 63.94 60.0771 63.8483 60.1738 63.745V62.745ZM57.3138 60.63C57.5971 60.36 57.9038 60.1583 58.2338 60.025C58.5671 59.8917 58.9321 59.825 59.3288 59.825C59.6188 59.825 59.8755 59.8733 60.0988 59.97C60.3221 60.0633 60.5105 60.195 60.6638 60.365C60.8171 60.535 60.9321 60.7383 61.0088 60.975C61.0888 61.2117 61.1288 61.4733 61.1288 61.76V65H60.6938C60.5971 65 60.5238 64.985 60.4738 64.955C60.4238 64.9217 60.3838 64.8617 60.3538 64.775L60.2488 64.33C60.1188 64.45 59.9905 64.5567 59.8638 64.65C59.7371 64.74 59.6038 64.8183 59.4638 64.885C59.3271 64.9483 59.1805 64.9967 59.0238 65.03C58.8671 65.0633 58.6938 65.08 58.5038 65.08C58.3038 65.08 58.1155 65.0533 57.9388 65C57.7655 64.9433 57.6138 64.8583 57.4838 64.745C57.3538 64.6317 57.2505 64.49 57.1738 64.32C57.1005 64.15 57.0638 63.9517 57.0638 63.725C57.0638 63.525 57.1171 63.3333 57.2238 63.15C57.3338 62.9633 57.5105 62.7967 57.7538 62.65C58.0005 62.5033 58.3205 62.3833 58.7138 62.29C59.1105 62.1967 59.5971 62.1433 60.1738 62.13V61.76C60.1738 61.3767 60.0921 61.09 59.9288 60.9C59.7655 60.71 59.5255 60.615 59.2088 60.615C58.9955 60.615 58.8155 60.6417 58.6688 60.695C58.5255 60.7483 58.4005 60.8083 58.2938 60.875C58.1905 60.9383 58.0988 60.9967 58.0188 61.05C57.9421 61.1033 57.8621 61.13 57.7788 61.13C57.7121 61.13 57.6538 61.1117 57.6038 61.075C57.5571 61.0383 57.5188 60.995 57.4888 60.945L57.3138 60.63ZM67.6807 65H66.7007V60.71H64.1507V63.685C64.1507 63.885 64.199 64.035 64.2957 64.135C64.3957 64.2317 64.5223 64.28 64.6757 64.28C64.7657 64.28 64.8423 64.2683 64.9057 64.245C64.9723 64.2217 65.029 64.1967 65.0757 64.17C65.1223 64.14 65.1623 64.1133 65.1957 64.09C65.229 64.0667 65.259 64.055 65.2857 64.055C65.319 64.055 65.344 64.0633 65.3607 64.08C65.3807 64.0933 65.4007 64.1167 65.4207 64.15L65.7107 64.62C65.5507 64.7667 65.3607 64.88 65.1407 64.96C64.9207 65.04 64.6923 65.08 64.4557 65.08C64.0457 65.08 63.729 64.965 63.5057 64.735C63.2857 64.505 63.1757 64.1767 63.1757 63.75V60.71H62.5857C62.529 60.71 62.4807 60.6933 62.4407 60.66C62.404 60.6233 62.3857 60.57 62.3857 60.5V60.105L63.2157 59.99L63.4307 58.475C63.444 58.4183 63.469 58.375 63.5057 58.345C63.5457 58.3117 63.5957 58.295 63.6557 58.295H64.1507V60H67.6807V65ZM67.9007 58.32C67.9007 58.41 67.8823 58.4967 67.8457 58.58C67.809 58.66 67.759 58.7317 67.6957 58.795C67.6357 58.855 67.564 58.9033 67.4807 58.94C67.3973 58.9733 67.3107 58.99 67.2207 58.99C67.1307 58.99 67.0457 58.9733 66.9657 58.94C66.8857 58.9033 66.814 58.855 66.7507 58.795C66.6907 58.7317 66.6423 58.66 66.6057 58.58C66.5723 58.4967 66.5557 58.41 66.5557 58.32C66.5557 58.2267 66.5723 58.1383 66.6057 58.055C66.6423 57.9717 66.6907 57.9 66.7507 57.84C66.814 57.7767 66.8857 57.7283 66.9657 57.695C67.0457 57.6583 67.1307 57.64 67.2207 57.64C67.3107 57.64 67.3973 57.6583 67.4807 57.695C67.564 57.7283 67.6357 57.7767 67.6957 57.84C67.759 57.9 67.809 57.9717 67.8457 58.055C67.8823 58.1383 67.9007 58.2267 67.9007 58.32ZM71.7611 59.84C72.1345 59.84 72.4711 59.9017 72.7711 60.025C73.0745 60.145 73.3311 60.32 73.5411 60.55C73.7545 60.7767 73.9178 61.0517 74.0311 61.375C74.1445 61.695 74.2011 62.055 74.2011 62.455C74.2011 62.855 74.1445 63.2167 74.0311 63.54C73.9178 63.8633 73.7545 64.1383 73.5411 64.365C73.3311 64.5917 73.0745 64.7667 72.7711 64.89C72.4711 65.01 72.1345 65.07 71.7611 65.07C71.3845 65.07 71.0445 65.01 70.7411 64.89C70.4411 64.7667 70.1845 64.5917 69.9711 64.365C69.7578 64.1383 69.5928 63.8633 69.4761 63.54C69.3628 63.2167 69.3061 62.855 69.3061 62.455C69.3061 62.055 69.3628 61.695 69.4761 61.375C69.5928 61.0517 69.7578 60.7767 69.9711 60.55C70.1845 60.32 70.4411 60.145 70.7411 60.025C71.0445 59.9017 71.3845 59.84 71.7611 59.84ZM71.7611 64.31C72.2411 64.31 72.5995 64.1483 72.8361 63.825C73.0728 63.5017 73.1911 63.0467 73.1911 62.46C73.1911 61.8733 73.0728 61.4183 72.8361 61.095C72.5995 60.7683 72.2411 60.605 71.7611 60.605C71.2745 60.605 70.9111 60.7683 70.6711 61.095C70.4345 61.4183 70.3161 61.8733 70.3161 62.46C70.3161 63.0467 70.4345 63.5017 70.6711 63.825C70.9111 64.1483 71.2745 64.31 71.7611 64.31ZM76.7045 60.625C76.8145 60.5083 76.9295 60.4017 77.0495 60.305C77.1695 60.2083 77.2962 60.1267 77.4295 60.06C77.5662 59.99 77.7112 59.9367 77.8645 59.9C78.0212 59.86 78.1878 59.84 78.3645 59.84C78.6445 59.84 78.8895 59.8867 79.0995 59.98C79.3128 60.0733 79.4912 60.205 79.6345 60.375C79.7778 60.5417 79.8862 60.7433 79.9595 60.98C80.0328 61.2167 80.0695 61.4783 80.0695 61.765V65H79.0895V61.765C79.0895 61.4017 79.0062 61.12 78.8395 60.92C78.6728 60.7167 78.4178 60.615 78.0745 60.615C77.8245 60.615 77.5895 60.675 77.3695 60.795C77.1528 60.9117 76.9512 61.0717 76.7645 61.275V65H75.7895V59.92H76.3745C76.5112 59.92 76.5962 59.985 76.6295 60.115L76.7045 60.625Z" fill="#0D0D0D"/>
<rect x="140" y="31.5" width="19" height="19" rx="9.5" fill="#F2F2F2"/>
<rect x="140" y="31.5" width="19" height="19" rx="9.5" stroke="#C0C0C0"/>
<path d="M132.854 61.28C133.127 61.28 133.367 61.2467 133.574 61.18C133.784 61.1133 133.959 61.02 134.099 60.9C134.239 60.7767 134.344 60.6317 134.414 60.465C134.484 60.295 134.519 60.1083 134.519 59.905C134.519 59.4917 134.382 59.18 134.109 58.97C133.839 58.76 133.432 58.655 132.889 58.655H131.884V61.28H132.854ZM136.204 65H135.254C135.064 65 134.925 64.925 134.839 64.775L133.064 62.285C133.007 62.2017 132.945 62.1433 132.879 62.11C132.812 62.0733 132.712 62.055 132.579 62.055H131.884V65H130.819V57.82H132.889C133.352 57.82 133.75 57.8683 134.084 57.965C134.42 58.0583 134.697 58.1933 134.914 58.37C135.134 58.5433 135.295 58.7533 135.399 59C135.505 59.2467 135.559 59.5233 135.559 59.83C135.559 60.08 135.52 60.315 135.444 60.535C135.367 60.755 135.254 60.9533 135.104 61.13C134.957 61.3033 134.777 61.4533 134.564 61.58C134.35 61.7067 134.109 61.8033 133.839 61.87C133.972 61.95 134.087 62.0617 134.184 62.205L136.204 65ZM141.447 59.92V65H140.862C140.729 65 140.642 64.935 140.602 64.805L140.532 64.295C140.422 64.4117 140.307 64.5183 140.187 64.615C140.067 64.7117 139.939 64.795 139.802 64.865C139.665 64.9317 139.52 64.9833 139.367 65.02C139.214 65.06 139.049 65.08 138.872 65.08C138.592 65.08 138.345 65.0333 138.132 64.94C137.922 64.8467 137.745 64.7167 137.602 64.55C137.459 64.38 137.35 64.1767 137.277 63.94C137.204 63.7033 137.167 63.4417 137.167 63.155V59.92H138.147V63.155C138.147 63.5183 138.23 63.8017 138.397 64.005C138.564 64.205 138.819 64.305 139.162 64.305C139.412 64.305 139.645 64.2467 139.862 64.13C140.079 64.01 140.282 63.8467 140.472 63.64V59.92H141.447ZM144.223 60.625C144.333 60.5083 144.448 60.4017 144.568 60.305C144.688 60.2083 144.815 60.1267 144.948 60.06C145.085 59.99 145.23 59.9367 145.383 59.9C145.54 59.86 145.706 59.84 145.883 59.84C146.163 59.84 146.408 59.8867 146.618 59.98C146.831 60.0733 147.01 60.205 147.153 60.375C147.296 60.5417 147.405 60.7433 147.478 60.98C147.551 61.2167 147.588 61.4783 147.588 61.765V65H146.608V61.765C146.608 61.4017 146.525 61.12 146.358 60.92C146.191 60.7167 145.936 60.615 145.593 60.615C145.343 60.615 145.108 60.675 144.888 60.795C144.671 60.9117 144.47 61.0717 144.283 61.275V65H143.308V59.92H143.893C144.03 59.92 144.115 59.985 144.148 60.115L144.223 60.625ZM150.319 60.625C150.429 60.5083 150.544 60.4017 150.664 60.305C150.784 60.2083 150.91 60.1267 151.044 60.06C151.18 59.99 151.325 59.9367 151.479 59.9C151.635 59.86 151.802 59.84 151.979 59.84C152.259 59.84 152.504 59.8867 152.714 59.98C152.927 60.0733 153.105 60.205 153.249 60.375C153.392 60.5417 153.5 60.7433 153.574 60.98C153.647 61.2167 153.684 61.4783 153.684 61.765V65H152.704V61.765C152.704 61.4017 152.62 61.12 152.454 60.92C152.287 60.7167 152.032 60.615 151.689 60.615C151.439 60.615 151.204 60.675 150.984 60.795C150.767 60.9117 150.565 61.0717 150.379 61.275V65H149.404V59.92H149.989C150.125 59.92 150.21 59.985 150.244 60.115L150.319 60.625ZM156.519 59.92V65H155.544V59.92H156.519ZM156.704 58.35C156.704 58.44 156.686 58.5267 156.649 58.61C156.613 58.69 156.563 58.7617 156.499 58.825C156.439 58.885 156.368 58.9333 156.284 58.97C156.201 59.0033 156.114 59.02 156.024 59.02C155.934 59.02 155.849 59.0033 155.769 58.97C155.689 58.9333 155.618 58.885 155.554 58.825C155.494 58.7617 155.446 58.69 155.409 58.61C155.376 58.5267 155.359 58.44 155.359 58.35C155.359 58.2567 155.376 58.17 155.409 58.09C155.446 58.0067 155.494 57.935 155.554 57.875C155.618 57.8117 155.689 57.7633 155.769 57.73C155.849 57.6933 155.934 57.675 156.024 57.675C156.114 57.675 156.201 57.6933 156.284 57.73C156.368 57.7633 156.439 57.8117 156.499 57.875C156.563 57.935 156.613 58.0067 156.649 58.09C156.686 58.17 156.704 58.2567 156.704 58.35ZM159.346 60.625C159.456 60.5083 159.571 60.4017 159.691 60.305C159.811 60.2083 159.938 60.1267 160.071 60.06C160.208 59.99 160.353 59.9367 160.506 59.9C160.663 59.86 160.829 59.84 161.006 59.84C161.286 59.84 161.531 59.8867 161.741 59.98C161.954 60.0733 162.133 60.205 162.276 60.375C162.419 60.5417 162.528 60.7433 162.601 60.98C162.674 61.2167 162.711 61.4783 162.711 61.765V65H161.731V61.765C161.731 61.4017 161.648 61.12 161.481 60.92C161.314 60.7167 161.059 60.615 160.716 60.615C160.466 60.615 160.231 60.675 160.011 60.795C159.794 60.9117 159.593 61.0717 159.406 61.275V65H158.431V59.92H159.016C159.153 59.92 159.238 59.985 159.271 60.115L159.346 60.625ZM166.312 62.465C166.485 62.465 166.637 62.4417 166.767 62.395C166.9 62.3483 167.01 62.2833 167.097 62.2C167.187 62.1133 167.253 62.01 167.297 61.89C167.343 61.77 167.367 61.6383 167.367 61.495C167.367 61.2017 167.277 60.9683 167.097 60.795C166.92 60.6183 166.658 60.53 166.312 60.53C165.968 60.53 165.707 60.6183 165.527 60.795C165.35 60.9683 165.262 61.2017 165.262 61.495C165.262 61.6383 165.283 61.77 165.327 61.89C165.373 62.0067 165.44 62.1083 165.527 62.195C165.617 62.2783 165.727 62.345 165.857 62.395C165.99 62.4417 166.142 62.465 166.312 62.465ZM167.867 65.265C167.867 65.145 167.833 65.05 167.767 64.98C167.7 64.9067 167.608 64.85 167.492 64.81C167.378 64.7667 167.245 64.7367 167.092 64.72C166.938 64.7 166.777 64.685 166.607 64.675C166.44 64.665 166.268 64.6567 166.092 64.65C165.915 64.64 165.745 64.6233 165.582 64.6C165.408 64.6867 165.265 64.7917 165.152 64.915C165.042 65.0383 164.987 65.1833 164.987 65.35C164.987 65.4567 165.013 65.5567 165.067 65.65C165.123 65.7433 165.208 65.8233 165.322 65.89C165.438 65.96 165.583 66.0133 165.757 66.05C165.933 66.09 166.143 66.11 166.387 66.11C166.627 66.11 166.838 66.0883 167.022 66.045C167.205 66.005 167.358 65.9467 167.482 65.87C167.608 65.7967 167.703 65.7083 167.767 65.605C167.833 65.5017 167.867 65.3883 167.867 65.265ZM168.857 60.11V60.475C168.857 60.595 168.782 60.67 168.632 60.7L168.087 60.78C168.133 60.8833 168.17 60.9933 168.197 61.11C168.223 61.2233 168.237 61.3433 168.237 61.47C168.237 61.72 168.188 61.9467 168.092 62.15C167.995 62.35 167.862 62.5217 167.692 62.665C167.522 62.8083 167.318 62.9183 167.082 62.995C166.848 63.0717 166.592 63.11 166.312 63.11C166.082 63.11 165.867 63.085 165.667 63.035C165.567 63.095 165.49 63.1617 165.437 63.235C165.387 63.305 165.362 63.375 165.362 63.445C165.362 63.5617 165.41 63.6483 165.507 63.705C165.607 63.7617 165.735 63.8033 165.892 63.83C166.052 63.8533 166.233 63.8683 166.437 63.875C166.643 63.8817 166.852 63.8933 167.062 63.91C167.275 63.9233 167.483 63.95 167.687 63.99C167.893 64.0267 168.075 64.0883 168.232 64.175C168.392 64.2583 168.52 64.375 168.617 64.525C168.717 64.6717 168.767 64.8633 168.767 65.1C168.767 65.32 168.712 65.5333 168.602 65.74C168.495 65.9467 168.338 66.13 168.132 66.29C167.925 66.45 167.673 66.5783 167.377 66.675C167.08 66.7717 166.743 66.82 166.367 66.82C165.99 66.82 165.662 66.7833 165.382 66.71C165.105 66.6367 164.873 66.5383 164.687 66.415C164.503 66.2917 164.365 66.1483 164.272 65.985C164.182 65.8217 164.137 65.6517 164.137 65.475C164.137 65.2283 164.213 65.02 164.367 64.85C164.52 64.6767 164.732 64.5417 165.002 64.445C164.855 64.3783 164.738 64.2883 164.652 64.175C164.565 64.0583 164.522 63.905 164.522 63.715C164.522 63.6417 164.535 63.5667 164.562 63.49C164.588 63.41 164.628 63.3317 164.682 63.255C164.738 63.175 164.807 63.1 164.887 63.03C164.97 62.96 165.065 62.8967 165.172 62.84C164.922 62.7 164.725 62.515 164.582 62.285C164.438 62.0517 164.367 61.78 164.367 61.47C164.367 61.22 164.415 60.995 164.512 60.795C164.608 60.595 164.742 60.4233 164.912 60.28C165.085 60.1367 165.29 60.0267 165.527 59.95C165.767 59.8733 166.028 59.835 166.312 59.835C166.752 59.835 167.13 59.9267 167.447 60.11H168.857Z" fill="#0D0D0D"/>
<rect x="241.5" y="31.5" width="19" height="19" rx="9.5" fill="#F2F2F2"/>
<rect x="241.5" y="31.5" width="19" height="19" rx="9.5" stroke="#C0C0C0"/>
<path d="M236.639 61.28C236.912 61.28 237.152 61.2467 237.359 61.18C237.569 61.1133 237.744 61.02 237.884 60.9C238.024 60.7767 238.129 60.6317 238.199 60.465C238.269 60.295 238.304 60.1083 238.304 59.905C238.304 59.4917 238.167 59.18 237.894 58.97C237.624 58.76 237.217 58.655 236.674 58.655H235.669V61.28H236.639ZM239.989 65H239.039C238.849 65 238.71 64.925 238.624 64.775L236.849 62.285C236.792 62.2017 236.73 62.1433 236.664 62.11C236.597 62.0733 236.497 62.055 236.364 62.055H235.669V65H234.604V57.82H236.674C237.137 57.82 237.535 57.8683 237.869 57.965C238.205 58.0583 238.482 58.1933 238.699 58.37C238.919 58.5433 239.08 58.7533 239.184 59C239.29 59.2467 239.344 59.5233 239.344 59.83C239.344 60.08 239.305 60.315 239.229 60.535C239.152 60.755 239.039 60.9533 238.889 61.13C238.742 61.3033 238.562 61.4533 238.349 61.58C238.135 61.7067 237.894 61.8033 237.624 61.87C237.757 61.95 237.872 62.0617 237.969 62.205L239.989 65ZM244.245 61.895C244.245 61.7017 244.217 61.5233 244.16 61.36C244.107 61.1967 244.027 61.055 243.92 60.935C243.814 60.815 243.684 60.7217 243.53 60.655C243.377 60.5883 243.2 60.555 243 60.555C242.59 60.555 242.267 60.6733 242.03 60.91C241.797 61.1467 241.649 61.475 241.585 61.895H244.245ZM245.05 64.275C244.93 64.415 244.792 64.5367 244.635 64.64C244.479 64.74 244.312 64.8217 244.135 64.885C243.959 64.9483 243.775 64.995 243.585 65.025C243.399 65.055 243.214 65.07 243.03 65.07C242.68 65.07 242.355 65.0117 242.055 64.895C241.759 64.775 241.5 64.6017 241.28 64.375C241.064 64.145 240.894 63.8617 240.77 63.525C240.65 63.185 240.59 62.795 240.59 62.355C240.59 62.0017 240.645 61.6733 240.755 61.37C240.865 61.0633 241.022 60.7967 241.225 60.57C241.432 60.3433 241.684 60.165 241.98 60.035C242.277 59.905 242.61 59.84 242.98 59.84C243.29 59.84 243.575 59.8917 243.835 59.995C244.099 60.095 244.325 60.2417 244.515 60.435C244.705 60.6283 244.854 60.8667 244.96 61.15C245.07 61.4333 245.125 61.7567 245.125 62.12C245.125 62.27 245.109 62.3717 245.075 62.425C245.042 62.475 244.98 62.5 244.89 62.5H241.56C241.57 62.8033 241.614 63.0683 241.69 63.295C241.767 63.5183 241.872 63.705 242.005 63.855C242.142 64.005 242.304 64.1167 242.49 64.19C242.677 64.2633 242.885 64.3 243.115 64.3C243.332 64.3 243.519 64.275 243.675 64.225C243.835 64.175 243.972 64.1217 244.085 64.065C244.202 64.005 244.299 63.95 244.375 63.9C244.455 63.85 244.525 63.825 244.585 63.825C244.665 63.825 244.727 63.855 244.77 63.915L245.05 64.275ZM249.668 60.795C249.642 60.8383 249.613 60.87 249.583 60.89C249.553 60.9067 249.515 60.915 249.468 60.915C249.415 60.915 249.355 60.8967 249.288 60.86C249.225 60.8233 249.147 60.7833 249.053 60.74C248.963 60.6967 248.857 60.6567 248.733 60.62C248.61 60.5833 248.463 60.565 248.293 60.565C248.153 60.565 248.025 60.5833 247.908 60.62C247.795 60.6533 247.698 60.7017 247.618 60.765C247.538 60.825 247.477 60.8983 247.433 60.985C247.39 61.0683 247.368 61.1583 247.368 61.255C247.368 61.3817 247.405 61.4867 247.478 61.57C247.555 61.6533 247.653 61.725 247.773 61.785C247.897 61.845 248.035 61.9 248.188 61.95C248.345 61.9967 248.503 62.0467 248.663 62.1C248.827 62.1533 248.985 62.215 249.138 62.285C249.295 62.3517 249.433 62.4367 249.553 62.54C249.677 62.64 249.775 62.7617 249.848 62.905C249.925 63.0483 249.963 63.2233 249.963 63.43C249.963 63.6667 249.92 63.8867 249.833 64.09C249.75 64.29 249.625 64.4633 249.458 64.61C249.295 64.7567 249.092 64.8717 248.848 64.955C248.605 65.0383 248.327 65.08 248.013 65.08C247.663 65.08 247.34 65.0217 247.043 64.905C246.747 64.7883 246.498 64.64 246.298 64.46L246.528 64.085C246.555 64.0383 246.588 64.0033 246.628 63.98C246.668 63.9533 246.722 63.94 246.788 63.94C246.852 63.94 246.917 63.9633 246.983 64.01C247.05 64.0567 247.13 64.1083 247.223 64.165C247.317 64.2183 247.43 64.2683 247.563 64.315C247.697 64.3583 247.863 64.38 248.063 64.38C248.23 64.38 248.375 64.36 248.498 64.32C248.622 64.2767 248.723 64.22 248.803 64.15C248.887 64.0767 248.948 63.9933 248.988 63.9C249.028 63.8067 249.048 63.7083 249.048 63.605C249.048 63.4717 249.01 63.3617 248.933 63.275C248.86 63.185 248.762 63.1083 248.638 63.045C248.518 62.9817 248.38 62.9267 248.223 62.88C248.067 62.8333 247.907 62.7833 247.743 62.73C247.58 62.6767 247.42 62.615 247.263 62.545C247.107 62.475 246.967 62.3867 246.843 62.28C246.723 62.1733 246.625 62.0433 246.548 61.89C246.475 61.7367 246.438 61.55 246.438 61.33C246.438 61.1333 246.478 60.945 246.558 60.765C246.642 60.585 246.76 60.4267 246.913 60.29C247.07 60.1533 247.262 60.045 247.488 59.965C247.718 59.8817 247.98 59.84 248.273 59.84C248.61 59.84 248.913 59.8933 249.183 60C249.457 60.1067 249.69 60.2533 249.883 60.44L249.668 60.795ZM255.744 59.92V65H255.159C255.026 65 254.939 64.935 254.899 64.805L254.829 64.295C254.719 64.4117 254.604 64.5183 254.484 64.615C254.364 64.7117 254.236 64.795 254.099 64.865C253.962 64.9317 253.817 64.9833 253.664 65.02C253.511 65.06 253.346 65.08 253.169 65.08C252.889 65.08 252.642 65.0333 252.429 64.94C252.219 64.8467 252.042 64.7167 251.899 64.55C251.756 64.38 251.647 64.1767 251.574 63.94C251.501 63.7033 251.464 63.4417 251.464 63.155V59.92H252.444V63.155C252.444 63.5183 252.527 63.8017 252.694 64.005C252.861 64.205 253.116 64.305 253.459 64.305C253.709 64.305 253.942 64.2467 254.159 64.13C254.376 64.01 254.579 63.8467 254.769 63.64V59.92H255.744ZM258.605 57.62V65H257.625V57.62H258.605ZM262.088 65.08C261.678 65.08 261.361 64.965 261.138 64.735C260.918 64.505 260.808 64.1767 260.808 63.75V60.71H260.218C260.161 60.71 260.113 60.6933 260.073 60.66C260.036 60.6233 260.018 60.57 260.018 60.5V60.105L260.843 59.99L261.062 58.475C261.076 58.4183 261.101 58.375 261.138 58.345C261.178 58.3117 261.228 58.295 261.288 58.295H261.783V60H263.223V60.71H261.783V63.685C261.783 63.885 261.831 64.035 261.928 64.135C262.028 64.2317 262.154 64.28 262.308 64.28C262.398 64.28 262.474 64.2683 262.538 64.245C262.604 64.2217 262.661 64.1967 262.708 64.17C262.754 64.14 262.794 64.1133 262.828 64.09C262.861 64.0667 262.891 64.055 262.918 64.055C262.951 64.055 262.976 64.0633 262.993 64.08C263.013 64.0933 263.033 64.1167 263.053 64.15L263.343 64.62C263.183 64.7667 262.993 64.88 262.773 64.96C262.553 65.04 262.324 65.08 262.088 65.08ZM267.616 60.795C267.589 60.8383 267.561 60.87 267.531 60.89C267.501 60.9067 267.462 60.915 267.416 60.915C267.362 60.915 267.302 60.8967 267.236 60.86C267.172 60.8233 267.094 60.7833 267.001 60.74C266.911 60.6967 266.804 60.6567 266.681 60.62C266.557 60.5833 266.411 60.565 266.241 60.565C266.101 60.565 265.972 60.5833 265.856 60.62C265.742 60.6533 265.646 60.7017 265.566 60.765C265.486 60.825 265.424 60.8983 265.381 60.985C265.337 61.0683 265.316 61.1583 265.316 61.255C265.316 61.3817 265.352 61.4867 265.426 61.57C265.502 61.6533 265.601 61.725 265.721 61.785C265.844 61.845 265.982 61.9 266.136 61.95C266.292 61.9967 266.451 62.0467 266.611 62.1C266.774 62.1533 266.932 62.215 267.086 62.285C267.242 62.3517 267.381 62.4367 267.501 62.54C267.624 62.64 267.722 62.7617 267.796 62.905C267.872 63.0483 267.911 63.2233 267.911 63.43C267.911 63.6667 267.867 63.8867 267.781 64.09C267.697 64.29 267.572 64.4633 267.406 64.61C267.242 64.7567 267.039 64.8717 266.796 64.955C266.552 65.0383 266.274 65.08 265.961 65.08C265.611 65.08 265.287 65.0217 264.991 64.905C264.694 64.7883 264.446 64.64 264.246 64.46L264.476 64.085C264.502 64.0383 264.536 64.0033 264.576 63.98C264.616 63.9533 264.669 63.94 264.736 63.94C264.799 63.94 264.864 63.9633 264.931 64.01C264.997 64.0567 265.077 64.1083 265.171 64.165C265.264 64.2183 265.377 64.2683 265.511 64.315C265.644 64.3583 265.811 64.38 266.011 64.38C266.177 64.38 266.322 64.36 266.446 64.32C266.569 64.2767 266.671 64.22 266.751 64.15C266.834 64.0767 266.896 63.9933 266.936 63.9C266.976 63.8067 266.996 63.7083 266.996 63.605C266.996 63.4717 266.957 63.3617 266.881 63.275C266.807 63.185 266.709 63.1083 266.586 63.045C266.466 62.9817 266.327 62.9267 266.171 62.88C266.014 62.8333 265.854 62.7833 265.691 62.73C265.527 62.6767 265.367 62.615 265.211 62.545C265.054 62.475 264.914 62.3867 264.791 62.28C264.671 62.1733 264.572 62.0433 264.496 61.89C264.422 61.7367 264.386 61.55 264.386 61.33C264.386 61.1333 264.426 60.945 264.506 60.765C264.589 60.585 264.707 60.4267 264.861 60.29C265.017 60.1533 265.209 60.045 265.436 59.965C265.666 59.8817 265.927 59.84 266.221 59.84C266.557 59.84 266.861 59.8933 267.131 60C267.404 60.1067 267.637 60.2533 267.831 60.44L267.616 60.795Z" fill="#0D0D0D"/>
</svg>
