<svg width="44" height="49" viewBox="0 0 44 49" fill="none" xmlns="http://www.w3.org/2000/svg">
<g id="Clip path group">
<mask id="mask0_282_1631" style="mask-type:luminance" maskUnits="userSpaceOnUse" x="0" y="0" width="44" height="49">
<g id="3be0c6711d">
<path id="Vector" d="M0.5 0.887207H43.5V48.7796H0.5V0.887207Z" fill="white"/>
</g>
</mask>
<g mask="url(#mask0_282_1631)">
<g id="Group">
<path id="Vector_2" d="M40.0548 37.9571L23.3906 47.4991C22.8075 47.8333 22.1532 48 21.4996 48C20.8461 48 20.1918 47.8333 19.6087 47.4991L2.94449 37.9571C1.74452 37.2696 1 35.9779 1 34.5843V15.6977C1 14.3248 1.72901 13.0416 2.90219 12.3498L19.5664 2.52713C20.7594 1.82393 22.2399 1.82465 23.4322 2.52713L40.0964 12.3498C41.2703 13.0416 42 14.3241 42 15.6977V30.6729L39.2694 28.5234V15.6977C39.2694 15.3023 39.06 14.9325 38.7209 14.733L22.0566 4.91032C21.7126 4.70798 21.286 4.70798 20.9427 4.91032L19.7787 5.59642L22.1356 9.74294C28.2899 10.0016 33.505 13.9971 35.6124 19.5379C35.9487 20.4213 36.2053 21.344 36.3745 22.2965H27.8281C26.822 19.7594 24.3656 17.9619 21.4996 17.9619C17.7418 17.9619 14.6848 21.0511 14.6848 24.8486C14.6848 28.646 17.7418 31.7352 21.4996 31.7352C22.8434 31.7352 24.097 31.3384 25.1531 30.6573H29.114C27.3705 32.9863 24.606 34.4939 21.4996 34.4939C20.2235 34.4939 19.0052 34.2395 17.892 33.7786L16.3479 36.3769C17.9174 37.1065 19.6623 37.514 21.5004 37.514C26.308 37.514 30.4818 34.729 32.5321 30.6729H42V34.5843C42 35.9779 41.2541 37.2696 40.0548 37.9571ZM29.4616 19.5372H32.6371C30.6263 15.3678 26.3898 12.4881 21.4996 12.4881C21.1901 12.4881 20.8842 12.503 20.581 12.5258L20.2024 11.8647L20.196 11.8689L17.4203 6.98643L17.4154 6.98928L16.0511 4.59968L15.4949 8.12138L4.27842 14.733C3.94 14.9325 3.7299 15.3023 3.7299 15.6984V34.5843C3.7299 34.9862 3.94494 35.3588 4.29041 35.5569L5.42552 36.2066L8.00031 31.8549C6.96955 29.793 6.38719 27.4647 6.38719 25.0003C6.38719 18.9266 9.91448 13.6715 15.007 11.2128L16.3719 13.6159L17.7214 15.9905C18.8804 15.4832 20.1587 15.2018 21.5004 15.2018C24.8218 15.2025 27.7526 16.9274 29.4616 19.5372ZM34.0909 33.4316C31.3814 37.551 26.7501 40.2726 21.4996 40.2726C18.1733 40.2726 15.0958 39.1783 12.5971 37.3309L13.2141 36.2921L13.2126 36.2914L15.54 32.3771C13.3558 30.6081 11.9549 27.8908 11.9549 24.8478C11.9549 21.8733 13.2937 19.2087 15.3954 17.4382L14.0284 15.0337C11.0468 17.3193 9.11709 20.9357 9.11709 25.001C9.11709 27.5395 9.87077 29.902 11.1617 31.877L10.8698 32.3714L10.874 32.3743L7.08447 38.7786L7.07601 38.7729L6.38719 39.9278L9.58735 38.5898L20.9547 45.0981C21.291 45.2912 21.709 45.2912 22.0446 45.0981L38.7082 35.5569C39.0544 35.3588 39.2694 34.9862 39.2694 34.5843V33.4316H34.0909Z" fill="#4AA6B0"/>
</g>
</g>
</g>
</svg>
